<svg viewBox="0 0 50 50" xmlns="http://www.w3.org/2000/svg"><path d="M14.31 15.45a4.22 4.22 0 1 1 4.09-4.21 4.16 4.16 0 0 1-4.09 4.21zm0-6.15a1.94 1.94 0 1 0 1.88 1.94 1.92 1.92 0 0 0-1.88-1.94zm23.46 30.31a4.22 4.22 0 1 1 4.09-4.21 4.16 4.16 0 0 1-4.09 4.21zm0-6.15a1.94 1.94 0 1 0 1.88 1.94 1.92 1.92 0 0 0-1.88-1.95zM9.24 45.42a5.4 5.4 0 0 1 0-10.8 5.4 5.4 0 0 1 0 10.8zm0-8.52a3.13 3.13 0 0 0 0 6.25 3.13 3.13 0 0 0 0-6.25zm16.95-6.75a6.86 6.86 0 1 1 6.66-6.86 6.77 6.77 0 0 1-6.66 6.86zm0-11.44a4.59 4.59 0 1 0 4.45 4.59 4.53 4.53 0 0 0-4.45-4.59zm14.57-4.64a5.33 5.33 0 0 1-5.24-5.4 5.25 5.25 0 1 1 10.48 0 5.33 5.33 0 0 1-5.24 5.4zm0-8.52a3.13 3.13 0 1 0 3 3.12 3.08 3.08 0 0 0-3-3.12zM26.19 46.73a5.4 5.4 0 1 1 5.24-5.4 5.33 5.33 0 0 1-5.24 5.4zm0-8.52a3.13 3.13 0 1 0 3 3.12 3.08 3.08 0 0 0-3-3.13z" fill="#fff"/><path d="M20.89 19.64l-5.02-5.17 1.56-1.61 5.02 5.17-1.56 1.61zm13.88 14.29l-5.02-5.17 1.56-1.6 5.02 5.17-1.56 1.6zm-9.68-4.91h2.21v8.05h-2.21zm-11.77 9.17l-1.57-1.61 9.52-9.8 1.57 1.61-9.52 9.8zm17.25-17.77l-1.56-1.61 8.46-8.71 1.56 1.61-8.46 8.71z" fill="#fff"/></svg>
